<?xml version="1.0" encoding="UTF-8"?>
<svg id="Layer_1" data-name="Layer 1" xmlns="http://www.w3.org/2000/svg" viewBox="0 0 512 512">
  <defs>
    <style>
      .cls-1, .cls-2 {
        fill: #009640;
      }

      .cls-3 {
        fill: #138741;
      }

      .cls-3, .cls-2, .cls-4 {
        stroke: #009640;
        stroke-miterlimit: 10;
      }

      .cls-4 {
        fill: none;
      }
    </style>
  </defs>
  <g id="_حاشیه" data-name="حاشیه">
    <path class="cls-1" d="m278.75,24.42c52.31-1.28,134.18-1.71,187.06-2.67.97-.01,1.76.77,1.76,1.74.95,105.44,1.96,249.57,2.39,355,0,0,.43,118.34.43,118.34,0,1.82-1.47,3.29-3.28,3.29-94.55-.07-223.83-.23-318.37-.63,0,0-106.12-.52-106.12-.52-1.18,0-2.14-.95-2.13-2.13.28-30.67.55-92.18.91-122.83.35-30.62.78-92.22,1.23-122.83.47,30.61.9,92.22,1.23,122.83.39,30.56.66,92.26.91,122.83,0,0-2.13-2.13-2.13-2.13,133-.79,291.5-1.1,424.5-1.15,0,0-3.28,3.29-3.28,3.29-.38-148.3-.32-325.05.26-473.35,0,0,1.76,1.74,1.76,1.74-53.19.28-134.53-.75-187.08-.82h0Z"/>
  </g>
  <g id="_بیت_السادات_و_ابن_الزهرا" data-name="بیت السادات و ابن الزهرا">
    <g>
      <path class="cls-1" d="m85.65,449.25l-2.02,24.42c-.1,1.2-.42,1.81-.97,1.81s-.93-.76-1.11-2.29l-2.39-20.43,5.67-4.12c.25-.18.45-.27.59-.27.2,0,.27.29.23.88Z"/>
      <path class="cls-1" d="m105.66,475.34h-1.18c-.38,0-.69-.13-.94-.4.06,4.59-1.42,8.51-4.43,11.76-.48.52-.83.84-1.07.96-.29.17-.76.26-1.41.27-1.22.04-2.81-.05-4.77-.27-2.65-.29-3.97-.73-3.97-1.32,0-.49.57-.96,1.7-1.41,2.27-.9,4.19-1.8,5.77-2.71,4.1-2.35,6.15-4.37,6.15-6.07,0-1.43-1.9-3.51-5.69-6.26l3.19-4.75c.22-.34.4-.5.52-.5s.34.17.63.51c2.14,2.52,3.77,3.78,4.89,3.78h.59v6.4Z"/>
      <path class="cls-1" d="m126.57,469.78c0,1.01-.36,2.11-1.09,3.32-.95,1.58-2.2,2.37-3.74,2.37-1.78,0-4.23-1.01-7.35-3.02-.92.77-2.17,1.45-3.75,2.03-1.57.58-2.96.87-4.15.87h-1.81v-6.42h3.34c-1.37-.71-2.06-1.7-2.06-2.96,0-.76.45-1.64,1.36-2.65.77-.85,1.57-1.5,2.41-1.93l-1.89-.73,2.23-5.48c.21-.5.48-.76.82-.76.21,0,.49.1.84.29,3.28,1.86,6.14,3.82,8.61,5.88,4.14,3.46,6.21,6.52,6.21,9.2Zm-10.37-3.59c0-.69-.5-1.37-1.49-2.04-.92-.64-1.74-.96-2.46-.96-.49,0-.99.12-1.51.38-.63.31-.94.68-.94,1.11,0,.46.69,1.12,2.08,1.97,1.3.8,2.13,1.2,2.48,1.2.48,0,.9-.16,1.28-.48s.57-.71.57-1.18Zm7.5,4.35c0-1.02-1.63-2.5-4.89-4.43-.01.46-.17,1.03-.46,1.7-.31.71-.63,1.2-.97,1.47,2.48,1.36,4.27,2.04,5.38,2.04.63,0,.94-.26.94-.78Z"/>
      <path class="cls-1" d="m146.56,475.34h-1.18c-.38,0-.69-.13-.94-.4.06,4.59-1.42,8.51-4.43,11.76-.48.52-.83.84-1.07.96-.29.17-.76.26-1.41.27-1.22.04-2.81-.05-4.77-.27-2.65-.29-3.97-.73-3.97-1.32,0-.49.57-.96,1.7-1.41,2.27-.9,4.19-1.8,5.77-2.71,4.1-2.35,6.15-4.37,6.15-6.07,0-1.43-1.9-3.51-5.69-6.26l3.19-4.75c.22-.34.4-.5.52-.5s.34.17.63.51c2.14,2.52,3.77,3.78,4.89,3.78h.59v6.4Zm-4.54-17.72c.18.18.17.36,0,.54l-2.62,2.61c-.18.19-.37.2-.57.01l-2.67-2.56c-.21-.21-.19-.45.07-.7l2.44-2.48c.22-.22.45-.22.67,0l2.69,2.58Z"/>
      <path class="cls-1" d="m154.66,455.12c.07.15.1.27.1.36,0,.22-.23.34-.69.34-.29,0-.69-.04-1.2-.13v12.17c0,1.95-.5,3.64-1.49,5.07-1.12,1.61-2.62,2.42-4.49,2.42h-1.49v-6.4h1.57c1.76,0,2.65-.64,2.65-1.93,0-1.04-.2-2.86-.61-5.46-.5-3.22-1.13-6.12-1.87-8.7l3.63-3.91c.28-.31.51-.46.69-.46s.37.22.57.65l2.62,6.01Z"/>
      <path class="cls-1" d="m164.85,449.25l-2.02,24.42c-.1,1.2-.42,1.81-.97,1.81s-.93-.76-1.11-2.29l-2.39-20.43,5.67-4.12c.25-.18.45-.27.59-.27.2,0,.27.29.23.88Z"/>
      <path class="cls-1" d="m208.08,475.34h-1.3c-1.46,0-2.46-.22-3-.65.08.69.13,1.35.13,1.99,0,3.83-1.3,6.73-3.91,8.67-2.32,1.75-5.46,2.62-9.41,2.62-3.36,0-6.11-.64-8.25-1.93-2.62-1.58-3.93-3.93-3.93-7.05s.71-5.68,2.12-7.79c.36-.54.75-.82,1.15-.82.32,0,.48.21.48.63,0,.24-.05.5-.15.8-.5,1.53-.76,2.88-.76,4.07,0,3.82,3.14,5.73,9.41,5.73,2.49,0,4.76-.29,6.8-.86,3.04-.85,4.56-2.17,4.56-3.95,0-1.25-1.74-3.73-5.23-7.45l2.77-4.64c.22-.36.41-.55.57-.55s.34.14.57.42c1.15,1.42,2.03,2.39,2.65,2.91,1.13.96,2.32,1.43,3.57,1.43h1.15v6.4Zm-14.59-12.91c.18.18.17.36,0,.54l-2.62,2.61c-.18.19-.37.2-.57.01l-2.67-2.56c-.21-.21-.19-.45.07-.7l2.44-2.48c.22-.22.45-.22.67,0l2.69,2.58Z"/>
      <path class="cls-1" d="m215.45,466.22c0,2.17-.5,4.12-1.51,5.84-1.27,2.19-3.09,3.28-5.44,3.28h-1.55v-6.4h1.3c2.77,0,4.16-.41,4.16-1.22,0-.71-1.25-2.22-3.74-4.52l3-4.63c.17-.25.36-.29.59-.11,1.15.94,2.01,2.32,2.58,4.14.41,1.29.61,2.49.61,3.62Zm-1.14,15.45c.18.17.18.35-.02.54l-2.62,2.6c-.18.18-.37.18-.57,0l-2.65-2.56c-.21-.21-.19-.44.06-.7l2.44-2.48c.22-.22.44-.21.67.01l2.69,2.58Z"/>
      <path class="cls-1" d="m225.67,449.25l-2.02,24.42c-.1,1.2-.42,1.81-.97,1.81s-.93-.76-1.11-2.29l-2.39-20.43,5.67-4.12c.25-.18.45-.27.59-.27.2,0,.27.29.23.88Z"/>
      <path class="cls-1" d="m253.91,468.31c0,3.46-.55,6.63-1.66,9.53-.84,2.21-1.92,4.09-3.23,5.63-1.05,1.23-1.81,1.85-2.27,1.85-1.67,0-4.25-.29-7.75-.88-.98-.17-1.47-.58-1.47-1.24,0-.35.38-.66,1.13-.92,1.43-.5,2.36-.86,2.79-1.07,5.81-2.86,9.14-5.86,9.99-9.03-1.01.08-1.95.12-2.81.12-5.08,0-7.62-1.32-7.62-3.95,0-1.36.48-3.37,1.43-6.05,1.3-3.67,2.89-5.5,4.77-5.5,2.3,0,4.06,1.43,5.29,4.28.94,2.18,1.41,4.59,1.41,7.22Zm-3.7-2.44c-.35-1.12-1-1.98-1.95-2.58-.69-.43-1.32-.65-1.91-.65-1.43,0-2.14.67-2.14,2.02,0,.87,1.44,1.3,4.33,1.3.62,0,1.18-.03,1.68-.08Z"/>
      <path class="cls-1" d="m300.38,462.98c0,2.54-.38,4.6-1.16,6.2-.9,1.84-2.39,3.28-4.47,4.33-2.42,1.22-6.5,1.83-12.22,1.83-3.02,0-5.38-.14-7.05-.42-5.35-.9-8.02-3.69-8.02-8.37,0-2.35.32-4.25.97-5.68.29-.66.64-.99,1.03-.99.42,0,.63.26.63.78,0,.22-.04.55-.12.98s-.12.75-.12.96c0,1.96.58,3.39,1.74,4.27,1.85,1.4,5.47,2.11,10.86,2.11,3.74,0,6.96-.2,9.66-.61,3.46-.52,5.19-1.29,5.19-2.31,0-.83-1.32-2.22-3.95-4.18l2.77-5.66c.14-.28.25-.43.32-.44.08-.01.25.06.48.23.8.55,1.54,1.42,2.22,2.63.83,1.44,1.24,2.89,1.24,4.35Zm-11.78-8.13c.17.17.16.35-.02.53l-2.44,2.44c-.17.16-.35.16-.53,0l-2.38-2.38-2.35,2.37c-.17.17-.34.18-.52,0l-2.48-2.42c-.2-.18-.17-.39.06-.63l2.27-2.31c.2-.21.4-.21.61,0l2.31,2.31,2.31-2.31c.21-.21.42-.21.63,0l2.52,2.39Z"/>
      <path class="cls-1" d="m310.58,449.25l-2.02,24.42c-.1,1.2-.42,1.81-.97,1.81s-.93-.76-1.11-2.29l-2.39-20.43,5.67-4.12c.25-.18.45-.27.59-.27.2,0,.27.29.23.88Z"/>
      <path class="cls-1" d="m331.47,465.59c0,3.22-.44,5.51-1.32,6.87-1.25,1.92-3.37,2.88-6.36,2.88h-4.24c-1.64,0-2.91-.49-3.81-1.47-.9-.98-1.35-2.3-1.35-3.96,0-1.15.13-2.32.4-3.51.18-.8.52-1.2,1.01-1.2.59,0,.99.6,1.2,1.82.21,1.28,1.94,1.92,5.18,1.92,4.92,0,7.38-.55,7.38-1.64,0-.73-1.23-2.03-3.69-3.89-2.46-1.87-4.1-2.8-4.92-2.8-.2,0-.42.06-.66.19-.25.13-.41.19-.49.19-.53,0-.8-.28-.8-.84,0-.18.05-.4.15-.65l1.95-4.93c.18-.45.51-.67.99-.67,1.18,0,2.98,1.33,5.42,3.99,2.66,2.9,3.99,5.47,3.99,7.71Z"/>
      <path class="cls-1" d="m343.38,475.34h-2.06c-3.71,0-5.56-2.99-5.56-8.97,0-4.76-.17-9.78-.52-15.07l3.81-2.69c.47-.34.79-.5.94-.5.2,0,.29.35.29,1.05v16.77c0,2,.84,3,2.52,3h.59v6.4Z"/>
      <path class="cls-1" d="m363.76,475.34h-1.13c-1.06,0-1.98-.73-2.75-2.18-.84,1.48-1.87,2.23-3.09,2.23-1.41,0-2.58-.74-3.48-2.23-.9,1.46-1.95,2.18-3.15,2.18-1.38,0-2.51-.71-3.38-2.12-.24.41-.67.84-1.3,1.29-.76.55-1.45.83-2.08.83h-1.2v-6.4h1.01c.87,0,1.46-.35,1.79-1.06.06-.13.2-.78.44-1.95.14-.71.43-1.06.88-1.06.42,0,.71.35.88,1.05l.46,1.96c.28.7.79,1.05,1.53,1.05,1.02,0,1.73-.36,2.12-1.07.14-.25.32-.9.52-1.95.14-.7.43-1.05.86-1.05s.73.35.88,1.05c.25,1.13.42,1.79.5,1.95.35.71.98,1.07,1.89,1.07.85,0,1.43-.36,1.74-1.07.06-.24.2-.89.44-1.95.15-.7.46-1.05.92-1.05.39,0,.67.35.82,1.05.25,1.1.43,1.75.53,1.96.35.7.96,1.05,1.83,1.05h1.51v6.4Z"/>
      <path class="cls-1" d="m371.89,455.12c.07.15.1.27.1.36,0,.22-.23.34-.69.34-.29,0-.69-.04-1.2-.13v12.17c0,1.95-.5,3.64-1.49,5.07-1.12,1.61-2.62,2.42-4.49,2.42h-1.49v-6.4h1.57c1.76,0,2.65-.64,2.65-1.93,0-1.04-.2-2.86-.61-5.46-.5-3.22-1.13-6.12-1.87-8.7l3.63-3.91c.28-.31.51-.46.69-.46s.37.22.57.65l2.62,6.01Z"/>
      <path class="cls-1" d="m382.07,449.25l-2.02,24.42c-.1,1.2-.42,1.81-.97,1.81s-.93-.76-1.11-2.29l-2.39-20.43,5.67-4.12c.25-.18.45-.27.59-.27.2,0,.27.29.23.88Z"/>
      <path class="cls-1" d="m434.06,475.34h-1.53c-1.78,0-3.18-.58-4.2-1.73-.71-.8-1.15-1.75-1.32-2.85-1.75,2.1-3.67,3.71-5.77,4.83-3.71,1.99-8.43,2.98-14.17,2.98-7.61,0-11.42-3.05-11.42-9.15,0-1.93.44-3.67,1.32-5.23.18-.32.44-.48.78-.48.45,0,.67.34.67,1.01,0,.24-.03.58-.09,1.04-.06.46-.09.8-.09,1.04,0,2.86,1.87,4.57,5.6,5.14,1.01.15,2.71.23,5.12.23,8.1,0,14.27-2.15,18.53-6.45.59-.59,1.07-.88,1.45-.88.31,0,.51.18.61.55.07.28.04.62-.11,1.01-.17.46-.25.8-.25,1.01,0,1,1.03,1.5,3.09,1.5h1.81v6.42Zm-17.15-17.01c.17.15.16.32-.02.5l-2.45,2.46c-.19.18-.36.18-.53,0l-2.35-2.38-2.35,2.37c-.17.17-.35.17-.53,0l-2.5-2.42c-.2-.2-.17-.42.07-.65l2.27-2.29c.21-.21.42-.21.63,0l2.31,2.29,2.31-2.29c.21-.21.42-.21.63,0l2.52,2.39Z"/>
      <path class="cls-1" d="m445.75,475.34h-1.57c-2.38,0-4.01-1.36-4.89-4.07-.8,2.72-2.32,4.07-4.58,4.07h-1.81v-6.4h1.15c2.24,0,3.67-1.47,4.28-4.42.2-.94.55-1.41,1.05-1.41s.81.47.92,1.41c.34,2.95,1.62,4.42,3.86,4.42h1.57v6.4Zm-1.18,6.34c.17.15.16.32-.02.5l-2.44,2.44c-.1.1-.19.15-.27.15s-.17-.05-.27-.15l-2.35-2.35-2.35,2.35c-.17.17-.34.17-.53,0l-2.48-2.39c-.21-.2-.2-.41.05-.65l2.26-2.32c.21-.21.43-.21.64,0l2.3,2.31,2.31-2.31c.21-.2.42-.2.63.01l2.53,2.41Z"/>
      <path class="cls-1" d="m453.1,466.22c0,2.17-.5,4.12-1.51,5.84-1.27,2.19-3.09,3.28-5.44,3.28h-1.55v-6.4h1.3c2.77,0,4.16-.41,4.16-1.22,0-.71-1.25-2.22-3.74-4.52l3-4.63c.17-.25.36-.29.59-.11,1.15.94,2.01,2.32,2.58,4.14.41,1.29.61,2.49.61,3.62Zm-1.14,15.45c.18.17.18.35-.02.54l-2.62,2.6c-.18.18-.37.18-.57,0l-2.65-2.56c-.21-.21-.19-.44.06-.7l2.44-2.48c.22-.22.45-.21.67.01l2.69,2.58Z"/>
    </g>
    <g>
      <path class="cls-1" d="m72.49,446.86h-1.53c-1.49,0-2.53-.4-3.12-1.19-.5-.68-.75-1.8-.75-3.36-1.53.27-2.79.84-3.79,1.73-1.12,1.01-1.68,2.24-1.68,3.7s.65,2.45,1.94,3.13c1.01.53,2.29.8,3.84.8.97,0,1.96-.07,2.97-.21.72-.1,1.08.02,1.08.35,0,.31-.54.61-1.63.9-1.18.32-2.49.48-3.92.48-1.92,0-3.54-.34-4.86-1.01-1.69-.87-2.54-2.17-2.54-3.91s.73-3.16,2.2-4.37c1.25-1.03,2.9-1.79,4.95-2.3-1.83-.25-3.17-.38-4.02-.38-.5,0-.9.13-1.2.39-.21.25-.41.47-.61.68-.15.17-.31.25-.48.25-.22,0-.34-.14-.34-.42,0-.08.01-.16.03-.24.16-.6.45-1.21.86-1.83.68-1.02,1.45-1.53,2.31-1.53.39,0,1.09.11,2.11.32,1.1.23,1.92.37,2.45.41,2.26.19,3.84.28,4.74.28.38,0,.58.08.58.23s-.27.68-.82,1.57c-.33.54-.59.81-.8.81-1.1-.01-1.9,0-2.38.06,0,.98.68,1.47,2.04,1.47h2.35v3.2Zm-5.51.64c.09.08.09.17,0,.27l-1.31,1.3c-.09.09-.19.09-.28,0l-1.32-1.29c-.1-.1-.1-.21.03-.34l1.22-1.24c.11-.11.23-.11.34,0l1.34,1.29Z"/>
      <path class="cls-1" d="m80.84,444.25c-.64,1.61-1.13,2.41-1.45,2.41-1.66,0-2.87-.21-3.63-.62-.59.55-1.4.82-2.43.82h-1.51v-3.2h1.33c-.33-.27-.49-.63-.49-1.07,0-.74.34-1.59,1.02-2.55,1-1.43,2.07-2.14,3.21-2.14,1.45,0,2.56.71,3.33,2.12.17.31.25.56.25.76,0,.28-.16.42-.47.42-.17,0-.41-.05-.7-.16-.71-.25-1.66-.38-2.86-.38-1.47,0-2.2.38-2.2,1.13,0,.89,1.08,1.47,3.24,1.72,1.08.13,2.07.13,2.97.02.11-.01.2-.02.25-.02.2,0,.3.07.3.22,0,.1-.05.28-.15.52Z"/>
    </g>
  </g>
  <g id="_گلدسته" data-name="گلدسته">
    <path class="cls-2" d="m144.16,156.44c.07,3,.14,7.35.21,12.31.19,13.19-23.44,38.46-35.44,38.35.14-10.72.27-39.43.4-50.14,4.92-.75,10.57-1.32,16.82-1.45,6.72-.13,12.78.29,18.01.93Z"/>
    <path class="cls-2" d="m150.7,115.28c-.02.76,0,.79-.05.96-.17.75-.64.97-.95,1.46-.8,1.24.63,2.43-.06,3.83-.47.95-1.25.63-1.76,1.66-.57,1.17.3,1.88-.3,3.02-.51.98-1.32.81-1.56,1.72-.22.83.37,1.31,0,2.06-.19.37-.37.34-.91.91-.16.17-.66.71-1.01,1.46-.21.47-.76,1.64-.3,2.67.18.4.35.41.5.76.29.64.06,1.39-.27,2.03-6.21-.94-13.57-1.56-21.82-1.27-4.56.17-8.79.58-12.64,1.14.02-1.86.05-3.72.07-5.58-.9-.77-1.33-1.52-1.57-2.07-.58-1.37-.13-2.05-.85-3.27-.6-1.02-1.13-.9-1.31-1.72-.22-.94.41-1.46.05-2.36-.19-.47-.39-.43-.76-1.06-.27-.48-.4-.93-.55-1.77-.38-2.08-.08-2.15-.4-3.22-.37-1.23-.84-1.4-.81-2.22.03-.84.55-1.51,1.01-1.96-.07-3.38-.14-6.75-.2-10.13.43-.47.87-.94,1.31-1.41,1.57-.51,3.84-1.16,6.63-1.64,1.72-.3,3.75-.56,10.86-.73,5.86-.14,8.79-.21,12.32-.01,5,.29,8.03.83,9.31,1.08,2.13.41,3.91.87,5.2,1.24.05,3.7.11,7.39.17,11.09.5.66.65,1.23.7,1.62.04.3,0,.34-.05,1.71Z"/>
    <path class="cls-2" d="m153.88,91.55c.07.75-.43,1.49-.71,1.91-.19.28-.75,1.11-1.86,1.56-.62.26-1.17.3-1.51.31l-2.1-2.97-2,1.12v2.3l-.85.75-.85-1.05v-2.58l-3.09-2.92-4.38,2.07v1.43l-1.26,1.69-1.52-1.12v-2.17l-4.55-2.48-4.55,2.04v1.8l-1.46,1.66-1.66-1.25v-2.35l-4.07-1.66-4.21,2.75v1.82l-1.12,1.37-.99-1.37v-1.62l-2.61-1.15-2.07,2.77-.41,2.66c-.12.28-.25.57-.37.85-.04,1.07-.08,2.13-.12,3.2-.02-1.8-.04-3.6-.05-5.39-.33-.02-3.02-.17-4.24-2.22-.2-.33-.7-1.18-.5-2.17.07-.34.38-1.4,3.48-2.82,2.16-.99,4.14-1.45,5.74-1.71,1.45-.23,3.48-.44,5.95-.3.3-15.71.6-17.41.9-33.12-.67-.87-1.68-2.41-2.11-4.53-1.11-5.34,2.33-9.78,3.12-10.73,1.31-1.59,2.88-2.73,6.02-4.99.63-.46,1.06-.77,1.74-1.11.98-.49,1.32-.47,1.66-.81.41-.4.73-1.22.25-3.12-.92-.27-1.47-1.17-1.31-2.02.14-.69.75-1.25,1.52-1.36.48-.06.97-.13,1.46-.2.14.08,1.06.58,1.26,1.61.03.16.22,1.17-.46,1.72-.35.28-.77.3-.95.3.06,1.04.13,2.08.2,3.12.71.37,1.71.92,2.82,1.72.47.33,1.58,1.15,3.78,3.37,2.15,2.18,3.23,3.26,4.08,4.64.84,1.35,1.62,2.61,1.86,4.48.37,2.81-.71,5.03-1.1,5.8-.63,1.23-1.37,2.11-1.92,2.67v33.11c.91.01,2.28.05,3.93.2,4.43.42,6.65,1.26,7.61,1.66,1.62.69,3.45,1.49,3.58,2.83Z"/>
    <path class="cls-4" d="m149.88,100.86c-1.29-.37-3.07-.83-5.2-1.24-1.28-.25-4.31-.79-9.31-1.08-3.53-.2-6.46-.13-12.32.01-7.11.17-9.14.43-10.86.73-2.79.48-5.06,1.13-6.63,1.64.04-1.07.08-2.13.12-3.2.12-.28.25-.57.37-.85l.41-2.66,2.07-2.77,2.61,1.15v1.62l.99,1.37,1.12-1.37v-1.82l4.21-2.75,4.07,1.66v2.35l1.66,1.25,1.46-1.66v-1.8l4.55-2.04,4.55,2.48v2.17l1.52,1.12,1.26-1.69v-1.43l4.38-2.07,3.09,2.92v2.58l.85,1.05.85-.75v-2.3l2-1.12,2.1,2.97c.02,1.84.05,3.69.08,5.53Z"/>
    <path class="cls-3" d="m112.27,95.4c-.03,1.29-.06,2.58-.08,3.87"/>
    <path class="cls-4" d="m144.16,156.44c-5.23-.64-11.29-1.06-18.01-.93-6.25.13-11.9.7-16.82,1.45.08-6.43.16-12.85.24-19.27,3.85-.56,8.08-.97,12.64-1.14,8.25-.29,15.61.33,21.82,1.27-.09.17-.18.34-.28.49.14,6.04.28,12.09.41,18.13Z"/>
    <path class="cls-3" d="m122.96,94.63c.03,1.44.06,2.87.1,4.31"/>
    <path class="cls-3" d="m135.27,95.17l.11,3.77"/>
    <path class="cls-3" d="m144.71,96.36c-.01,1.09-.02,2.17-.03,3.26"/>
  </g>
  <g id="_موکب" data-name="موکب">
    <path class="cls-1" d="m261.9,58.16c-50.66,82.08-216.83,119.34-137.32,223.86,4.61,4.8,11.73,3.63,19.88,0-75.02-82.08,39.77-119.9,117.44-197.57v-26.29Z"/>
    <path class="cls-1" d="m406.95,102.42c3.09,59.04-61.38,76.68-89.29,110.36-.87,1.67-2.08,4.58-2.12,8.32-.08,7.52,4.63,12.56,5.76,13.7,13.72,10.08,40.47,34.15,40.31,39.19-.34,10.98-5.44,16.73-11.48,15.96-13.32,0-5.88-15.96-8.78-17.82-3.81-3.25-9.07,1.34-15.57,4.39-5.6,5.97-209.69,139.7-235.16-12.6,5.19,33.99,17.7,54.91,34.48,66.77,3.97,2.81,19.44,15.77,38.6,12.41,6.99,38.5,105.81-5.54,161.35-48.99,3.99-1.9,7.96-.44,9.97-.5,10.62,26.59,39.42,9.3,36.67-29-1.25-17.43-43.11-31.89-42.41-46.17,1.54-6.02,75.73-53.33,83.01-72.93,5.83-17.64,1.68-40.03-5.33-43.08Z"/>
    <path class="cls-1" d="m162.24,343.39c7.84,28.93,27.54,42.13,44.96,40.56l.02-.02c5.05,16.34,14.09,23.75,31.58,21.16,2.11,12.24,9.66,20.05,21.61,23.74v17.49c-5.42-14.87-25.94-8.12-32.03-30.38-14.4-4.03-25.31-10.86-31.72-20.99l.14-.15c-14.24-3.34-27.09-11.48-35.17-22.68-4.72-13.58-2.66-23.38.61-28.74Z"/>
    <path class="cls-1" d="m257.92,368.1c.07-.74,1.56-3.69,4.45-8.85,2.89-5.16,4.68-7.7,5.34-7.62,1.78.15,3.73,1.52,5.84,4.12,2.11,2.6,3.1,5.08,2.95,7.46-.15,2.6-1.37,5.79-3.67,9.57-2.38,3.64-4.01,5.45-4.9,5.45-.59-.07-1.3-.63-2.11-1.67-1.11-1.11-2.26-2.3-3.45-3.56-.96-.82-1.95-1.67-2.95-2.56-1-.89-1.5-1.67-1.5-2.34Z"/>
    <path class="cls-1" d="m399.18,301.02c-.8-.14-1.7-.09-2.65.11,11.03-13.34,20.8-30.28,19.72-55.54-.75-94.62-126.91-130.83-154.35-187.43v26.29c41.68,53.86,141.59,85.01,144.28,168-1.81,43.45-36.55,60.21-54,75.39-4.26-.76-11.65-.64-11.65-.64-2.42-5.69-8.77-7.36-15.6-7.25-9.47-.34-14.43,10.48-14.31,18.11-.98,9.05,1.6,22.31,14.94,22.31,0,0,18.85-.37,18.76-10.4,3.1-.88,6.03-1.01,8.68.06,0,0,.96,17.24-11.81,27.58-11.33,9.17-24.42,7.24-26.47,6.91l-.02-.02c-5.13,16.34-14.29,23.75-32.04,21.16.12,12.49-7.49,20.14-22.23,23.74v17.49c5.5-14.87,26.63-8.12,32.81-30.38,14.61-4.03,25.68-10.86,32.19-20.99l-.14-.15c14.45-3.34,26.44-9.95,33.87-22.68,4.78-11.78,2.15-23.73-.8-30.54,4.28-8.68,13.2-16.27,22.74-25.11,0,.06,0,.12.01.17,19.76-6.11,27.08-6.78,27.08,3.3-2.84,9.9-32.8-2.98-40.92,13.54-1.68,10.09,4.2,15.12,4.2,15.12,12.26-28.91,28.18,0,44.75-12.88,9-24.34-4.87-32.86-17.03-35.27Zm-76.05,44.46c-1.46-2.28-.56-2.28-.93-4.97-.34-5.11,12-1.33,15.12-2.39,0,7.51-3.19,9.3-14.18,7.36Z"/>
    <path class="cls-1" d="m388.07,247.02c3.73-.43,8.59-.43-1.31,11.01-.93.9.35,1.96.75,2.05,5.33,1.26,16.37-17.14,11.01-19.41-9.89-4.19-10.45,6.35-10.45,6.35Z"/>
    <path class="cls-1" d="m367.92,225.5c3.73-14.84,14.55-8.15,17.17-.19,1.78,5.42-4.85,5.04-14,10.08,2.24,5.78,6.91,14.74-.19,15.86-.56-10.45-6.35-12.77-3.36-19.78,2.99-2.61,7.65-6.72,7.65-6.72,0,0-1.16-.39-4.05,1.54-1.37.18-2.49-.87-3.23-.8Z"/>
    <path class="cls-1" d="m147.98,280.48c6.94-.17,13.87-.33,20.81-.5-5.87-9.37-20.93-36.28-13.54-66.19,4.08-16.52,13.87-29.38,18.8-35.85,10.05-13.2,17.26-18.43,31.34-31.84,9.27-8.83,22.55-22.35,37.36-40.87-7.64,7.11-19.65,17.93-35.1,30.34-24.07,19.33-29.75,21.38-42.88,33.85-15.04,14.29-30.78,29.24-34.6,51.65-4.72,27.67,11.39,51.09,17.8,59.42Z"/>
    <path class="cls-1" d="m174.81,280.23c8.02.33,16.05.67,24.07,1-6.2-12.14-17.28-38.45-11.63-69.57,3.24-17.82,11.57-32.71,14.43-37.83,7.22-12.9,10.54-15.02,25.53-36.53,15.85-22.74,25-39.25,24.82-39.36-.17-.11-7.51,14.13-22,29.84-3.75,4.07-10.32,10.29-17.33,17.15-13.37,13.07-16.08,15.31-21.25,21.54-23.89,28.8-28.25,55.38-28.25,55.38-4.18,26.89,6.45,49.14,11.6,58.38Z"/>
    <path class="cls-1" d="m207.41,280.73c8.19.17,16.38.33,24.57.5-7.24-12.94-19.37-39.23-16.71-71.97,1.57-19.33,8.19-35.51,9.77-39.29,6.58-15.82,12.07-20.28,19.98-36.67,4.34-9,10.03-22.88,13.79-41.62-3.55,9.93-9.71,24.62-20.31,40.62-10.7,16.15-15.45,17.82-24.5,31.59-6.07,9.25-19.79,30.12-21.37,58.38-1.44,25.86,7.91,46.61,14.77,58.46Z"/>
  </g>
</svg>